<?xml version="1.0" encoding="utf-8"?>
<!-- Generator: Adobe Illustrator 16.0.0, SVG Export Plug-In . SVG Version: 6.00 Build 0)  -->
<!DOCTYPE svg PUBLIC "-//W3C//DTD SVG 1.1//EN" "http://www.w3.org/Graphics/SVG/1.1/DTD/svg11.dtd">
<svg version="1.1" id="Layer_1" xmlns="http://www.w3.org/2000/svg" xmlns:xlink="http://www.w3.org/1999/xlink" x="0px" y="0px"
	 width="30px" height="15px" viewBox="0 0 30 15" enable-background="new 0 0 30 15" xml:space="preserve">
<path fill="#fab915" d="M29.734,6.857l-6.591-6.59C22.973,0.095,22.744,0,22.501,0c-0.242,0-0.471,0.095-0.643,0.267
	c-0.354,0.353-0.354,0.929,0,1.284L26.9,6.592h-7.684h-1.765H7.377H7.015v0.001H0.908C0.407,6.593,0,7,0,7.501
	c0,0.5,0.407,0.908,0.908,0.908h6.709h0.368V8.408h9.467h1.765H26.9l-5.042,5.041c-0.171,0.172-0.266,0.399-0.266,0.644
	c0,0.242,0.095,0.47,0.268,0.644c0.172,0.17,0.4,0.265,0.641,0.265s0.468-0.095,0.642-0.267l6.593-6.592
	C30.088,7.788,30.088,7.212,29.734,6.857z"/>
</svg>
