<?xml version="1.0" encoding="utf-8"?>
<!-- Generator: Adobe Illustrator 16.0.0, SVG Export Plug-In . SVG Version: 6.00 Build 0)  -->
<!DOCTYPE svg PUBLIC "-//W3C//DTD SVG 1.1//EN" "http://www.w3.org/Graphics/SVG/1.1/DTD/svg11.dtd">
<svg version="1.1" id="Layer_1" xmlns="http://www.w3.org/2000/svg" xmlns:xlink="http://www.w3.org/1999/xlink" x="0px" y="0px"
	 width="64px" height="64px" viewBox="0 0 64 64" enable-background="new 0 0 64 64" xml:space="preserve">
<path fill="#FFFFFF" d="M20.62,41.375h0.003c0.002,0,0.005,0,0.007,0h33.997c0.837,0,1.572-0.555,1.804-1.359l7.5-26.25
	c0.16-0.565,0.047-1.174-0.307-1.644s-0.909-0.746-1.497-0.746H16.295l-1.34-6.032c-0.19-0.857-0.952-1.468-1.831-1.468H1.875
	C0.838,3.875,0,4.714,0,5.75s0.839,1.875,1.875,1.875h9.746c0.236,1.069,6.414,28.865,6.77,30.464C16.398,38.955,15,40.943,15,43.25
	c0,3.104,2.523,5.625,5.625,5.625h34.001c1.035,0,1.875-0.84,1.875-1.875s-0.84-1.875-1.875-1.875H20.625
	c-1.034,0-1.875-0.842-1.875-1.875S19.587,41.377,20.62,41.375z M59.641,15.125l-6.43,22.5H22.128l-5-22.5H59.641z"/>
<path fill="#FFFFFF" d="M18.75,54.5c0,3.102,2.523,5.625,5.625,5.625S30,57.602,30,54.5s-2.523-5.625-5.625-5.625S18.75,51.398,18.75,54.5z
	 M24.375,52.625c1.034,0,1.875,0.842,1.875,1.875s-0.841,1.875-1.875,1.875S22.5,55.533,22.5,54.5S23.34,52.625,24.375,52.625z"/>
<path fill="#FFFFFF" d="M45.251,54.5c0,3.102,2.522,5.625,5.625,5.625s5.625-2.523,5.625-5.625s-2.522-5.625-5.625-5.625S45.251,51.398,45.251,54.5
	z M50.876,52.625c1.033,0,1.875,0.842,1.875,1.875s-0.842,1.875-1.875,1.875c-1.034,0-1.875-0.842-1.875-1.875
	S49.842,52.625,50.876,52.625z"/>
</svg>
