<?xml version="1.0" encoding="utf-8"?>
<!-- Generator: Adobe Illustrator 16.0.0, SVG Export Plug-In . SVG Version: 6.00 Build 0)  -->
<!DOCTYPE svg PUBLIC "-//W3C//DTD SVG 1.1//EN" "http://www.w3.org/Graphics/SVG/1.1/DTD/svg11.dtd">
<svg version="1.1" id="Capa_1" xmlns="http://www.w3.org/2000/svg" xmlns:xlink="http://www.w3.org/1999/xlink" x="0px" y="0px"
	 width="64px" height="64px" viewBox="0 0 64 64" enable-background="new 0 0 64 64" xml:space="preserve">
<path fill="#FFFFFF" d="M63.219,59.447l-18.2-18.199c3.525-4.354,5.647-9.887,5.647-15.915C50.666,11.366,39.301,0,25.333,0S0,11.366,0,25.333
	c0,13.967,11.365,25.333,25.333,25.333c6.026,0,11.56-2.121,15.915-5.646l18.199,18.199C59.968,63.74,60.65,64,61.333,64
	s1.365-0.262,1.886-0.781C64.261,62.176,64.261,60.49,63.219,59.447z M25.333,45.334c-11.028,0-20-8.971-20-20
	c0-11.029,8.97-20,20-20s20,8.971,20,20C45.333,36.363,36.362,45.334,25.333,45.334z"/>
</svg>
