<?xml version="1.0" encoding="utf-8"?>
<!-- Generator: Adobe Illustrator 16.0.0, SVG Export Plug-In . SVG Version: 6.00 Build 0)  -->
<!DOCTYPE svg PUBLIC "-//W3C//DTD SVG 1.1//EN" "http://www.w3.org/Graphics/SVG/1.1/DTD/svg11.dtd">
<svg version="1.1" id="Capa_1" xmlns="http://www.w3.org/2000/svg" xmlns:xlink="http://www.w3.org/1999/xlink" x="0px" y="0px"
	 width="64px" height="64px" viewBox="274 364 64 64" enable-background="new 274 364 64 64" xml:space="preserve">
<path fill="#FFFFFF" d="M338,396c0-17.645-14.355-32-32-32c-8.298,0-16.165,3.163-22.151,8.906c-0.756,0.725-0.78,1.925-0.056,2.681
	c0.725,0.756,1.926,0.78,2.681,0.056c5.276-5.062,12.211-7.85,19.525-7.85c15.554,0,28.208,12.654,28.208,28.208
	c0,7.073-2.632,13.84-7.411,19.053c-5.333,5.818-12.913,9.155-20.797,9.155c-7.563,0-14.848-3.072-20.136-8.459
	c0.031-0.136,0.066-0.27,0.101-0.404c0.027-0.106,0.053-0.214,0.082-0.32c0.044-0.162,0.094-0.321,0.143-0.481
	c0.029-0.095,0.055-0.19,0.085-0.285c0.059-0.183,0.124-0.363,0.188-0.544c0.024-0.068,0.046-0.138,0.072-0.206
	c0.185-0.496,0.389-0.981,0.614-1.454c0.034-0.071,0.07-0.14,0.104-0.21c0.081-0.164,0.161-0.329,0.246-0.49
	c0.045-0.085,0.093-0.168,0.14-0.253c0.079-0.144,0.157-0.287,0.239-0.428c0.053-0.091,0.109-0.18,0.164-0.27
	c0.08-0.132,0.16-0.264,0.242-0.393c0.059-0.093,0.121-0.182,0.182-0.272c0.083-0.124,0.165-0.248,0.25-0.37
	c0.064-0.092,0.132-0.182,0.198-0.271c0.086-0.117,0.171-0.235,0.26-0.351c0.07-0.09,0.142-0.179,0.213-0.268
	c0.089-0.111,0.178-0.224,0.27-0.333c0.074-0.088,0.15-0.175,0.226-0.262c0.093-0.106,0.186-0.213,0.281-0.317
	c0.079-0.086,0.159-0.169,0.239-0.254c0.097-0.102,0.193-0.203,0.292-0.303c0.083-0.083,0.167-0.164,0.25-0.245
	c0.1-0.097,0.201-0.193,0.303-0.288c0.086-0.079,0.174-0.157,0.261-0.235c0.104-0.093,0.208-0.184,0.313-0.273
	c0.09-0.076,0.181-0.151,0.272-0.227c0.107-0.087,0.214-0.174,0.323-0.259c0.093-0.072,0.188-0.145,0.282-0.216
	c0.11-0.082,0.221-0.163,0.333-0.243c0.097-0.069,0.194-0.138,0.292-0.205c0.113-0.077,0.228-0.154,0.342-0.229
	c0.1-0.065,0.2-0.13,0.301-0.193c0.116-0.072,0.234-0.144,0.352-0.214c0.103-0.062,0.206-0.122,0.31-0.181
	c0.119-0.068,0.24-0.135,0.361-0.199c0.105-0.058,0.211-0.113,0.318-0.169c0.122-0.063,0.246-0.123,0.37-0.184
	c0.108-0.052,0.216-0.104,0.325-0.154c0.125-0.059,0.252-0.114,0.379-0.169c0.11-0.048,0.22-0.096,0.331-0.142
	c0.129-0.053,0.259-0.103,0.389-0.152c0.112-0.043,0.223-0.087,0.336-0.127c0.132-0.048,0.265-0.093,0.398-0.138
	c0.113-0.037,0.226-0.076,0.34-0.112c0.135-0.042,0.272-0.081,0.409-0.121c0.114-0.032,0.228-0.066,0.343-0.098
	c0.139-0.037,0.28-0.07,0.42-0.104c0.114-0.027,0.228-0.057,0.343-0.082c0.144-0.031,0.289-0.06,0.434-0.088
	c0.114-0.021,0.227-0.046,0.341-0.066c0.149-0.026,0.3-0.048,0.451-0.071c0.112-0.017,0.223-0.035,0.335-0.05
	c0.158-0.021,0.319-0.037,0.479-0.054c0.105-0.012,0.211-0.025,0.317-0.034c0.178-0.016,0.357-0.025,0.536-0.036
	c0.09-0.005,0.179-0.014,0.269-0.018c0.27-0.012,0.54-0.018,0.813-0.018h4.668c5.479,0,10.623,2.429,14.111,6.666
	c0.665,0.808,1.86,0.924,2.669,0.258s0.924-1.86,0.258-2.669c-2.973-3.61-6.942-6.133-11.348-7.305
	c2.507-2.221,4.091-5.461,4.091-9.066c0-6.68-5.435-12.116-12.115-12.116s-12.115,5.435-12.115,12.116
	c0,3.605,1.584,6.845,4.091,9.066c-0.062,0.017-0.125,0.032-0.187,0.05c-0.26,0.071-0.518,0.147-0.774,0.229
	c-0.031,0.01-0.063,0.019-0.095,0.028c-0.288,0.092-0.572,0.19-0.854,0.294c-0.088,0.032-0.174,0.067-0.262,0.101
	c-0.194,0.073-0.387,0.148-0.578,0.228c-0.106,0.044-0.21,0.09-0.315,0.136c-0.171,0.073-0.341,0.148-0.51,0.226
	c-0.11,0.051-0.219,0.104-0.328,0.156c-0.162,0.078-0.323,0.158-0.484,0.24c-0.108,0.056-0.216,0.111-0.323,0.169
	c-0.161,0.086-0.319,0.174-0.478,0.264c-0.102,0.058-0.204,0.115-0.306,0.175c-0.166,0.098-0.33,0.199-0.494,0.301
	c-0.089,0.056-0.179,0.11-0.268,0.167c-0.204,0.131-0.404,0.266-0.603,0.403c-0.045,0.031-0.092,0.061-0.137,0.093
	c-0.243,0.17-0.482,0.346-0.718,0.525c-0.068,0.053-0.134,0.107-0.202,0.16c-0.166,0.13-0.331,0.261-0.494,0.396
	c-0.086,0.071-0.17,0.146-0.255,0.218c-0.141,0.121-0.281,0.242-0.419,0.366c-0.089,0.08-0.176,0.162-0.264,0.243
	c-0.131,0.122-0.261,0.245-0.389,0.37c-0.087,0.085-0.173,0.171-0.259,0.257c-0.127,0.128-0.251,0.258-0.375,0.389
	c-0.082,0.087-0.163,0.173-0.244,0.261c-0.127,0.14-0.252,0.282-0.376,0.426c-0.071,0.082-0.144,0.162-0.213,0.246
	c-0.146,0.174-0.29,0.352-0.43,0.53c-0.044,0.055-0.089,0.108-0.132,0.164c-0.183,0.235-0.36,0.475-0.533,0.717
	c-0.046,0.065-0.09,0.132-0.135,0.197c-0.125,0.18-0.25,0.361-0.37,0.545c-0.061,0.094-0.119,0.188-0.178,0.283
	c-0.101,0.16-0.201,0.32-0.298,0.483c-0.062,0.104-0.122,0.209-0.182,0.314c-0.09,0.157-0.179,0.315-0.266,0.476
	c-0.059,0.109-0.117,0.219-0.174,0.329c-0.083,0.161-0.165,0.324-0.245,0.487c-0.054,0.11-0.107,0.221-0.16,0.332
	c-0.08,0.172-0.157,0.347-0.233,0.521c-0.045,0.104-0.092,0.208-0.137,0.313c-0.085,0.204-0.166,0.411-0.245,0.618
	c-0.03,0.078-0.062,0.156-0.091,0.234c-0.004,0.012-0.009,0.023-0.013,0.035c-3.346-4.735-5.159-10.393-5.159-16.262
	c0-1.047-0.849-1.896-1.896-1.896S274,394.953,274,396c0,8.025,2.986,15.701,8.408,21.616C288.458,424.215,297.057,428,306,428
	s17.543-3.785,23.592-10.385c0.001,0,0.001-0.001,0.002-0.001C335.015,411.699,338,404.023,338,396z M306,381.178
	c4.589,0,8.323,3.733,8.323,8.323s-3.733,8.323-8.323,8.323c-4.589,0-8.323-3.733-8.323-8.323S301.411,381.178,306,381.178z"/>
</svg>
